Exact Audio Copy V0.99 prebeta 4 from 23. January 2008

EAC 抓取日志文件从28. 十一月 2011, 11:42

叶毛 廖莎 / 20世纪中华歌坛名人百集珍藏版

使用驱动器  ：TEAC    CD-W540E   Adapter: 3  ID: 0

读取模式     : 保护
使用精确流   : 是
废除音频缓冲 : 是
使用 C2 指针 : 否

读取偏移校正                   : 0
读取 Lead-In 和 Lead-Out       : 否
用静音填充抓取中丢失偏移的采样 : 是
去除首尾静音块                 : 否
在 CRC 计算中使用了空样本      : 是
已用接口                       : Win NT 及 2000 本地 Win32 接口

所用输出格式 : 内部 WAV 函数
样本格式     : 44.100 Hz;16 Bit;立体声


被抓轨 CD 的 TOC

     音轨 |   开始   |   长度   | 起始扇区 | 结尾扇区 
    --------------------------------------------------
       1  |  0:00.32 |  3:58.73 |      32  |   17954  
       2  |  3:59.30 |  3:44.15 |   17955  |   34769  
       3  |  7:43.45 |  6:42.00 |   34770  |   64919  
       4  | 14:25.45 |  2:47.70 |   64920  |   77514  
       5  | 17:13.40 |  3:22.10 |   77515  |   92674  
       6  | 20:35.50 |  2:57.00 |   92675  |  105949  
       7  | 23:32.50 |  3:46.25 |  105950  |  122924  
       8  | 27:19.00 |  4:28.35 |  122925  |  143059  
       9  | 31:47.35 |  5:37.12 |  143060  |  168346  
      10  | 37:24.47 |  3:43.08 |  168347  |  185079  
      11  | 41:07.55 |  5:17.62 |  185080  |  208916  
      12  | 46:25.42 |  4:07.00 |  208917  |  227441  
      13  | 50:32.42 |  3:52.25 |  227442  |  244866  


范围状态及错误

已选择范围

     文件名 E:\新建文件夹\叶毛 廖莎 - 20世纪中华歌坛名人百集珍藏版.wav

     峰值电平 99.3 %
     范围质量 100.0 %
     复制 CRC 68FAB95F
     复制成功

没有错误发生

状态报告结尾
